<svg width="58" height="58" viewBox="0 0 58 58" fill="none" xmlns="http://www.w3.org/2000/svg">
<path d="M5.4375 0H52.5625C55.5758 0 58 2.42422 58 5.4375V52.5625C58 55.5758 55.5758 58 52.5625 58H5.4375C2.42422 58 0 55.5758 0 52.5625V5.4375C0 2.42422 2.42422 0 5.4375 0Z" fill="white"/>
<path d="M22.9054 19.1223C21.0476 19.598 19.5749 19.5527 18.714 18.941C16.539 17.3551 18.1929 14.1605 18.782 13.209C17.7171 14.3645 16.6523 15.5426 15.8366 16.8113C14.5452 18.8051 13.9788 20.9801 14.8624 22.3621C16.4257 24.877 20.2093 23.7215 22.6335 22.702L44.9952 13.2996L22.9054 19.1223Z" fill="black"/>
<path d="M14.3794 44.7919H18.2062V40.4769C18.2062 39.0907 18.0305 37.7239 17.9329 36.3377L17.9719 36.2986L20.9397 44.7919H24.7666V30.0702H20.9397V33.819C20.9397 35.5176 21.2326 37.1968 21.3888 38.8954L21.3497 38.9345L18.1672 30.0702H14.3794V44.7919Z" fill="black"/>
<path d="M32.5637 44.7919V33.6628H34.848V30.0702H26.3938V33.6628H28.5806V44.7919H32.5637Z" fill="black"/>
<path d="M44.5038 30.1679C43.8595 29.914 43.1761 29.8164 42.4732 29.8164C40.5403 29.8164 36.0105 30.9293 36.0105 37.5287C36.0105 42.5661 38.783 45.0457 42.0437 45.0457C42.9223 45.0457 43.6447 44.87 44.4452 44.5185L44.6795 40.3988C44.0352 40.9846 43.469 41.336 42.5708 41.336C40.5793 41.336 40.0717 39.1492 40.0717 37.4311C40.0717 35.8105 40.5793 33.5261 42.6489 33.5261C43.469 33.5261 43.9376 33.8385 44.5038 34.3852V30.1679Z" fill="black"/>
</svg>
