<svg width="40" height="40" viewBox="0 0 40 40" fill="none" xmlns="http://www.w3.org/2000/svg">
<g clip-path="url(#clip0_9_342)">
<path d="M20 0C8.95536 0 0 8.95536 0 20C0 31.0446 8.95536 40 20 40C31.0446 40 40 31.0446 40 20C40 8.95536 31.0446 0 20 0Z" fill="#FF6701"/>
<path d="M33.9231 19.5325C33.9231 19.4674 33.9231 19.3934 33.9201 19.3076C33.9171 19.0679 33.9111 18.7986 33.9051 18.5115C33.881 17.6858 33.8389 16.8631 33.7728 16.0877C33.6827 15.0193 33.5505 14.1285 33.3702 13.4596C33.1799 12.7616 32.807 12.1251 32.2887 11.6135C31.7703 11.1019 31.1248 10.7333 30.4165 10.5445C29.5661 10.3196 27.9014 10.1805 25.5577 10.0947C24.4429 10.0533 23.25 10.0266 22.0571 10.0118C21.6394 10.0059 21.2518 10.003 20.9032 10H20.0198C19.6713 10.003 19.2837 10.0059 18.866 10.0118C17.6731 10.0266 16.4802 10.0533 15.3654 10.0947C13.0216 10.1835 11.354 10.3226 10.5066 10.5445C9.79808 10.7329 9.15225 11.1013 8.63385 11.613C8.11544 12.1246 7.74267 12.7614 7.55288 13.4596C7.36959 14.1285 7.24038 15.0193 7.15024 16.0877C7.08413 16.8631 7.04207 17.6858 7.01803 18.5115C7.00901 18.7986 7.00601 19.0679 7.003 19.3076C7.003 19.3934 7 19.4674 7 19.5325V19.6982C7 19.7634 7 19.8373 7.003 19.9232C7.00601 20.1629 7.01202 20.4322 7.01803 20.7193C7.04207 21.545 7.08413 22.3677 7.15024 23.1431C7.24038 24.2115 7.3726 25.1023 7.55288 25.7711C7.9375 27.1887 9.06731 28.3074 10.5066 28.6862C11.354 28.9111 13.0216 29.0502 15.3654 29.1361C16.4802 29.1775 17.6731 29.2041 18.866 29.2189C19.2837 29.2248 19.6713 29.2278 20.0198 29.2308H20.9032C21.2518 29.2278 21.6394 29.2248 22.0571 29.2189C23.25 29.2041 24.4429 29.1775 25.5577 29.1361C27.9014 29.0473 29.5691 28.9082 30.4165 28.6862C31.8558 28.3074 32.9856 27.1917 33.3702 25.7711C33.5535 25.1023 33.6827 24.2115 33.7728 23.1431C33.8389 22.3677 33.881 21.545 33.9051 20.7193C33.9141 20.4322 33.9171 20.1629 33.9201 19.9232C33.9201 19.8373 33.9231 19.7634 33.9231 19.6982V19.5325ZM31.7596 19.6864C31.7596 19.7486 31.7596 19.8166 31.7566 19.8965C31.7536 20.1274 31.7476 20.3819 31.7416 20.6571C31.7206 21.4443 31.6785 22.2316 31.6154 22.9626C31.5343 23.9155 31.4201 24.6968 31.2788 25.2207C31.0925 25.9043 30.5457 26.4459 29.8546 26.6264C29.2236 26.7922 27.634 26.9253 25.4736 27.0052C24.3798 27.0467 23.2019 27.0733 22.027 27.0881C21.6154 27.094 21.2338 27.097 20.8912 27.097H20.0319L18.896 27.0881C17.7212 27.0733 16.5463 27.0467 15.4495 27.0052C13.2891 26.9224 11.6965 26.7922 11.0685 26.6264C10.3774 26.4429 9.83053 25.9043 9.64423 25.2207C9.50301 24.6968 9.38882 23.9155 9.30769 22.9626C9.24459 22.2316 9.20553 21.4443 9.18149 20.6571C9.17248 20.3819 9.16947 20.1244 9.16647 19.8965C9.16647 19.8166 9.16346 19.7456 9.16346 19.6864V19.5444C9.16346 19.4822 9.16346 19.4141 9.16647 19.3342C9.16947 19.1034 9.17548 18.8489 9.18149 18.5736C9.20252 17.7864 9.24459 16.9992 9.30769 16.2682C9.38882 15.3152 9.50301 14.5339 9.64423 14.0101C9.83053 13.3265 10.3774 12.7849 11.0685 12.6044C11.6995 12.4386 13.2891 12.3054 15.4495 12.2255C16.5433 12.1841 17.7212 12.1575 18.896 12.1427C19.3077 12.1368 19.6893 12.1338 20.0319 12.1338H20.8912L22.027 12.1427C23.2019 12.1575 24.3768 12.1841 25.4736 12.2255C27.634 12.3084 29.2266 12.4386 29.8546 12.6044C30.5457 12.7878 31.0925 13.3265 31.2788 14.0101C31.4201 14.5339 31.5343 15.3152 31.6154 16.2682C31.6785 16.9992 31.7176 17.7864 31.7416 18.5736C31.7506 18.8489 31.7536 19.1064 31.7566 19.3342C31.7566 19.4141 31.7596 19.4852 31.7596 19.5444V19.6864ZM17.7873 23.5811L24.7584 19.5858L17.7873 15.6497V23.5811Z" fill="white"/>
</g>
<defs>
<clipPath id="clip0_9_342">
<rect width="40" height="40" fill="white"/>
</clipPath>
</defs>
</svg>
