<svg width="58" height="59" viewBox="0 0 58 59" fill="none" xmlns="http://www.w3.org/2000/svg">
<path d="M5.4375 0.5H52.5625C55.5758 0.5 58 2.92422 58 5.9375V53.0625C58 56.0758 55.5758 58.5 52.5625 58.5H5.4375C2.42422 58.5 0 56.0758 0 53.0625V5.9375C0 2.92422 2.42422 0.5 5.4375 0.5Z" fill="black"/>
<path d="M22.9055 19.6219C21.0477 20.0977 19.575 20.0524 18.7141 19.4406C16.5391 17.8547 18.193 14.6602 18.7821 13.7086C17.7172 14.8641 16.6524 16.0422 15.8368 17.311C14.5454 19.3047 13.9789 21.4797 14.8625 22.8617C16.4258 25.3766 20.2094 24.2211 22.6336 23.2016L44.9954 13.7992L22.9055 19.6219V19.6219Z" fill="white"/>
<path d="M12.6566 45.2921H16.4835V40.9771C16.4835 39.5908 16.3077 38.2241 16.2101 36.8379L16.2492 36.7988L19.2169 45.2921H23.0438V30.5704H19.2169V34.3192C19.2169 36.0178 19.5098 37.6969 19.666 39.3956L19.627 39.4346L16.4444 30.5704H12.6566V45.2921Z" fill="white"/>
<path d="M35.8783 45.2921L32.9105 39.1613C34.492 38.5365 35.1949 37.0917 35.1949 35.4711C35.1949 31.5857 32.6957 30.5704 29.2398 30.5704H25.3935V45.2921H29.3765V41.3676C29.3765 40.6452 29.3375 39.9228 29.3179 39.2004L29.357 39.1613L31.5633 45.2921H35.8783ZM29.3765 37.365V33.7334C30.4699 33.6748 31.2509 34.2215 31.2509 35.5102C31.2509 36.4669 30.6847 37.3846 29.6303 37.3846L29.3765 37.365Z" fill="white"/>
<path d="M45.2407 30.668C44.5964 30.4142 43.913 30.3166 43.2101 30.3166C41.2772 30.3166 36.7474 31.4295 36.7474 38.0289C36.7474 43.0663 39.5199 45.5459 42.7806 45.5459C43.6592 45.5459 44.3816 45.3702 45.1821 45.0187L45.4164 40.899C44.7721 41.4847 44.2059 41.8362 43.3077 41.8362C41.3162 41.8362 40.8086 39.6494 40.8086 37.9312C40.8086 36.3107 41.3162 34.0263 43.3858 34.0263C44.2059 34.0263 44.6745 34.3387 45.2407 34.8854V30.668Z" fill="white"/>
</svg>
