<svg width="30" height="30" viewBox="0 0 30 30" fill="none" xmlns="http://www.w3.org/2000/svg">
<path d="M5.6882 23.3281C5.6882 23.8467 6.10715 24.2656 6.6257 24.2656H23.4421C23.9607 24.2656 24.3796 23.8467 24.3796 23.3281V16.502C24.3796 11.3398 20.196 7.15625 15.0339 7.15625C9.8718 7.15625 5.6882 11.3398 5.6882 16.502V23.3281ZM7.79758 16.502C7.79758 12.5059 11.0378 9.26562 15.0339 9.26562C19.03 9.26562 22.2702 12.5059 22.2702 16.502V22.1562H11.8698V17.1465C11.8698 16.9854 11.738 16.8535 11.5769 16.8535H10.2878C10.1267 16.8535 9.99484 16.9854 9.99484 17.1465V22.1562H7.79758V16.502ZM6.3884 9.10449L7.54855 7.94434C7.63938 7.85352 7.63938 7.7041 7.54855 7.61328L5.5593 5.62402C5.51525 5.58041 5.45576 5.55594 5.39377 5.55594C5.33178 5.55594 5.27229 5.58041 5.22824 5.62402L4.06809 6.78418C4.02447 6.82823 4 6.88772 4 6.94971C4 7.0117 4.02447 7.07118 4.06809 7.11523L6.05734 9.10449C6.14816 9.19531 6.29465 9.19531 6.3884 9.10449ZM26.0056 6.78418L24.8454 5.62402C24.8014 5.58041 24.7419 5.55594 24.6799 5.55594C24.6179 5.55594 24.5584 5.58041 24.5144 5.62402L22.5251 7.61328C22.4815 7.65733 22.457 7.71682 22.457 7.77881C22.457 7.8408 22.4815 7.90029 22.5251 7.94434L23.6853 9.10449C23.7761 9.19531 23.9255 9.19531 24.0163 9.10449L26.0056 7.11523C26.0964 7.02148 26.0964 6.875 26.0056 6.78418ZM24.4089 26.1406H5.65891C5.14035 26.1406 4.72141 26.5596 4.72141 27.0781V27.7812C4.72141 27.9102 4.82688 28.0156 4.95578 28.0156H25.112C25.2409 28.0156 25.3464 27.9102 25.3464 27.7812V27.0781C25.3464 26.5596 24.9275 26.1406 24.4089 26.1406ZM14.2136 5.28125H15.8542C15.9831 5.28125 16.0886 5.17578 16.0886 5.04688V2.23438C16.0886 2.10547 15.9831 2 15.8542 2H14.2136C14.0847 2 13.9792 2.10547 13.9792 2.23438V5.04688C13.9792 5.17578 14.0847 5.28125 14.2136 5.28125Z" fill="#FF6701"/>
</svg>
