<svg width="31" height="30" viewBox="0 0 31 30" fill="none" xmlns="http://www.w3.org/2000/svg">
<path d="M16 15C17.7239 15 19.3772 14.3152 20.5962 13.0962C21.8152 11.8772 22.5 10.2239 22.5 8.5C22.5 6.77609 21.8152 5.12279 20.5962 3.90381C19.3772 2.68482 17.7239 2 16 2C14.2761 2 12.6228 2.68482 11.4038 3.90381C10.1848 5.12279 9.5 6.77609 9.5 8.5C9.5 10.2239 10.1848 11.8772 11.4038 13.0962C12.6228 14.3152 14.2761 15 16 15ZM20.3333 8.5C20.3333 9.64927 19.8768 10.7515 19.0641 11.5641C18.2515 12.3768 17.1493 12.8333 16 12.8333C14.8507 12.8333 13.7485 12.3768 12.9359 11.5641C12.1232 10.7515 11.6667 9.64927 11.6667 8.5C11.6667 7.35073 12.1232 6.24853 12.9359 5.43587C13.7485 4.62321 14.8507 4.16667 16 4.16667C17.1493 4.16667 18.2515 4.62321 19.0641 5.43587C19.8768 6.24853 20.3333 7.35073 20.3333 8.5ZM29 25.8333C29 28 26.8333 28 26.8333 28H5.16667C5.16667 28 3 28 3 25.8333C3 23.6667 5.16667 17.1667 16 17.1667C26.8333 17.1667 29 23.6667 29 25.8333ZM26.8333 25.8247C26.8312 25.2917 26.4997 23.6883 25.0307 22.2193C23.618 20.8067 20.9595 19.3333 16 19.3333C11.0383 19.3333 8.382 20.8067 6.96933 22.2193C5.50033 23.6883 5.171 25.2917 5.16667 25.8247H26.8333Z" fill="#FF6701"/>
</svg>
