<svg width="40" height="40" viewBox="0 0 40 40" fill="none" xmlns="http://www.w3.org/2000/svg">
<path d="M16.6667 31.6667C16.2773 31.6675 15.8999 31.5319 15.6 31.2834C15.4312 31.1435 15.2917 30.9716 15.1895 30.7777C15.0872 30.5838 15.0242 30.3716 15.0041 30.1534C14.984 29.9351 15.0071 29.7149 15.0722 29.5056C15.1373 29.2963 15.243 29.1018 15.3833 28.9334L22.85 20.0001L15.65 11.0501C15.5116 10.8796 15.4082 10.6834 15.3458 10.4729C15.2834 10.2623 15.2632 10.0415 15.2865 9.82309C15.3097 9.60471 15.3759 9.39308 15.4812 9.20035C15.5865 9.00762 15.7288 8.8376 15.9 8.70006C16.0724 8.54834 16.2744 8.43389 16.4932 8.36391C16.7119 8.29393 16.9428 8.26992 17.1713 8.2934C17.3998 8.31687 17.621 8.38732 17.8209 8.50032C18.0209 8.61333 18.1953 8.76644 18.3333 8.95006L26.3833 18.9501C26.6285 19.2483 26.7625 19.6224 26.7625 20.0084C26.7625 20.3944 26.6285 20.7685 26.3833 21.0667L18.05 31.0667C17.8828 31.2684 17.6704 31.4279 17.4301 31.5321C17.1897 31.6364 16.9282 31.6825 16.6667 31.6667Z" fill="#111111"/>
</svg>
