<svg width="40" height="40" viewBox="0 0 40 40" fill="none" xmlns="http://www.w3.org/2000/svg">
<path d="M23.05 31.6665C22.801 31.6673 22.555 31.6124 22.33 31.5057C22.1051 31.3989 21.9069 31.2432 21.75 31.0498L13.7 21.0498C13.4549 20.7516 13.3209 20.3775 13.3209 19.9915C13.3209 19.6054 13.4549 19.2314 13.7 18.9331L22.0333 8.93314C22.3162 8.59278 22.7228 8.37874 23.1635 8.33811C23.6042 8.29747 24.043 8.43358 24.3833 8.71648C24.7237 8.99937 24.9377 9.40589 24.9784 9.8466C25.019 10.2873 24.8829 10.7261 24.6 11.0665L17.15 19.9998L24.35 28.9331C24.5538 29.1778 24.6833 29.4757 24.7231 29.7916C24.7629 30.1075 24.7113 30.4282 24.5746 30.7158C24.4378 31.0033 24.2216 31.2457 23.9514 31.4142C23.6812 31.5826 23.3684 31.6702 23.05 31.6665Z" fill="#111111"/>
</svg>
