<svg width="31" height="30" viewBox="0 0 31 30" fill="none" xmlns="http://www.w3.org/2000/svg">
<path d="M9.875 10.3125V8.4375C9.875 6.94566 10.4676 5.51492 11.5225 4.46002C12.5774 3.40513 14.0082 2.8125 15.5 2.8125V2.8125C16.9918 2.8125 18.4226 3.40513 19.4775 4.46002C20.5324 5.51492 21.125 6.94566 21.125 8.4375V10.3125M5.1875 10.3125C4.93886 10.3125 4.7004 10.4113 4.52459 10.5871C4.34877 10.7629 4.25 11.0014 4.25 11.25V23.9062C4.25 25.6781 5.75938 27.1875 7.53125 27.1875H23.4688C25.2406 27.1875 26.75 25.7514 26.75 23.9795V11.25C26.75 11.0014 26.6512 10.7629 26.4754 10.5871C26.2996 10.4113 26.0611 10.3125 25.8125 10.3125H5.1875Z" stroke="#FF6701" stroke-width="2.5" stroke-linecap="round" stroke-linejoin="round"/>
</svg>
