<svg width="31" height="30" viewBox="0 0 31 30" fill="none" xmlns="http://www.w3.org/2000/svg">
<path fill-rule="evenodd" clip-rule="evenodd" d="M21.9079 12.6355C21.9079 13.7218 21.6939 14.7975 21.2782 15.8012C20.8624 16.8048 20.2531 17.7168 19.4849 18.4849C18.7168 19.2531 17.8048 19.8624 16.8012 20.2782C15.7975 20.6939 14.7218 20.9079 13.6355 20.9079C12.5491 20.9079 11.4734 20.6939 10.4697 20.2782C9.46608 19.8624 8.55414 19.2531 7.78597 18.4849C7.01781 17.7168 6.40847 16.8048 5.99274 15.8012C5.57701 14.7975 5.36304 13.7218 5.36304 12.6355C5.36304 10.4415 6.2346 8.33735 7.78597 6.78597C9.33735 5.2346 11.4415 4.36304 13.6355 4.36304C15.8294 4.36304 17.9336 5.2346 19.4849 6.78597C21.0363 8.33735 21.9079 10.4415 21.9079 12.6355ZM20.2747 20.9457C18.1508 22.6424 15.4579 23.4616 12.749 23.2349C10.04 23.0082 7.52073 21.7528 5.70845 19.7267C3.89616 17.7005 2.92848 15.0573 3.00412 12.34C3.07977 9.62265 4.19301 7.0374 6.1152 5.1152C8.0374 3.19301 10.6226 2.07977 13.34 2.00412C16.0573 1.92848 18.7005 2.89616 20.7267 4.70845C22.7528 6.52073 24.0082 9.04004 24.2349 11.749C24.4616 14.4579 23.6424 17.1508 21.9457 19.2747L28.6534 25.98C28.7633 26.0899 28.8505 26.2204 28.9099 26.3639C28.9694 26.5075 29 26.6613 29 26.8167C29 26.9721 28.9694 27.126 28.9099 27.2696C28.8505 27.4131 28.7633 27.5436 28.6534 27.6534C28.5436 27.7633 28.4131 27.8505 28.2696 27.9099C28.126 27.9694 27.9721 28 27.8167 28C27.6613 28 27.5075 27.9694 27.3639 27.9099C27.2204 27.8505 27.0899 27.7633 26.98 27.6534L20.277 20.9457H20.2747Z" fill="#FF6701"/>
</svg>
