<svg width="40" height="40" viewBox="0 0 40 40" fill="none" xmlns="http://www.w3.org/2000/svg">
<g clip-path="url(#clip0_9_335)">
<path d="M20 0C8.95536 0 0 8.95536 0 20C0 31.0446 8.95536 40 20 40C31.0446 40 40 31.0446 40 20C40 8.95536 31.0446 0 20 0Z" fill="#FF6701"/>
<path d="M19.9976 15.6615C19.1403 15.6618 18.3024 15.9163 17.5897 16.3929C16.8771 16.8695 16.3218 17.5468 15.9939 18.3391C15.6661 19.1314 15.5805 20.0031 15.7479 20.844C15.9154 21.6849 16.3283 22.4573 16.9346 23.0635C17.5409 23.6697 18.3133 24.0825 19.1541 24.2497C19.9949 24.4168 20.8664 24.3309 21.6584 24.0027C22.4504 23.6745 23.1273 23.1187 23.6035 22.4058C24.0798 21.6928 24.3339 20.8546 24.3339 19.9972C24.3331 18.8472 23.8759 17.7447 23.0628 16.9317C22.2497 16.1188 21.1472 15.6619 19.9976 15.6615ZM30.1323 12.3288C29.9116 11.7694 29.5784 11.2614 29.1533 10.8362C28.7282 10.411 28.2202 10.0777 27.661 9.85694C25.9544 9.18309 21.8911 9.33428 19.9976 9.33428C18.1041 9.33428 14.0448 9.1774 12.3333 9.85694C11.7741 10.0777 11.2661 10.411 10.841 10.8362C10.4159 11.2614 10.0827 11.7694 9.862 12.3288C9.18912 14.0358 9.33946 18.104 9.33946 19.9963C9.33946 21.8886 9.18912 25.952 9.86525 27.6647C10.0859 28.2241 10.4192 28.7321 10.8443 29.1573C11.2694 29.5825 11.7773 29.9158 12.3366 30.1366C14.0432 30.8104 18.1065 30.6592 20.0008 30.6592C21.8951 30.6592 25.9528 30.8161 27.6642 30.1366C28.2235 29.9158 28.7314 29.5825 29.1565 29.1573C29.5817 28.7321 29.9149 28.2241 30.1356 27.6647C30.8141 25.9577 30.6581 21.8895 30.6581 19.9972C30.6581 18.1049 30.8141 14.0423 30.1356 12.3296L30.1323 12.3288ZM19.9976 26.6625C18.6796 26.6625 17.3912 26.2716 16.2953 25.5392C15.1995 24.8068 14.3453 23.7658 13.841 22.5479C13.3366 21.3299 13.2046 19.9898 13.4618 18.6968C13.7189 17.4039 14.3535 16.2162 15.2855 15.2841C16.2175 14.3519 17.4048 13.7171 18.6975 13.4599C19.9902 13.2027 21.33 13.3347 22.5477 13.8392C23.7654 14.3437 24.8061 15.198 25.5384 16.2941C26.2706 17.3902 26.6614 18.6789 26.6614 19.9972C26.6625 20.8728 26.4908 21.74 26.1563 22.5491C25.8218 23.3583 25.331 24.0935 24.712 24.7126C24.093 25.3318 23.358 25.8227 22.549 26.1573C21.74 26.4919 20.873 26.6635 19.9976 26.6625ZM26.9361 14.608C26.6284 14.6082 26.3276 14.5171 26.0717 14.3462C25.8158 14.1754 25.6163 13.9324 25.4985 13.6482C25.3806 13.3639 25.3497 13.0511 25.4096 12.7492C25.4696 12.4474 25.6176 12.1701 25.8351 11.9524C26.0526 11.7347 26.3298 11.5865 26.6315 11.5264C26.9333 11.4663 27.2461 11.4971 27.5303 11.6148C27.8146 11.7325 28.0576 11.9319 28.2285 12.1878C28.3995 12.4437 28.4907 12.7445 28.4907 13.0522C28.4916 13.2566 28.4521 13.4591 28.3745 13.6482C28.2969 13.8372 28.1828 14.0091 28.0387 14.1539C27.8946 14.2988 27.7233 14.4137 27.5346 14.4922C27.3459 14.5707 27.1437 14.6112 26.9393 14.6113L26.9361 14.608ZM32.9092 25.3619C32.8043 27.4452 32.3289 29.2912 30.8084 30.808C29.2879 32.3247 27.444 32.81 25.3636 32.9092C23.2173 33.0303 16.7827 33.0303 14.6364 32.9092C12.5535 32.8043 10.7145 32.328 9.19155 30.808C7.66862 29.2879 7.18996 27.4412 7.09082 25.3619C6.96973 23.2144 6.96973 16.7775 7.09082 14.6324C7.19565 12.5491 7.66537 10.7031 9.19155 9.18634C10.7177 7.66958 12.5617 7.19 14.6364 7.09084C16.7827 6.96972 23.2173 6.96972 25.3636 7.09084C27.4464 7.19569 29.2912 7.67202 30.8084 9.19203C32.3257 10.7121 32.81 12.5588 32.9092 14.6421C33.0303 16.7815 33.0303 23.2128 32.9092 25.3619Z" fill="white"/>
</g>
<defs>
<clipPath id="clip0_9_335">
<rect width="40" height="40" fill="white"/>
</clipPath>
</defs>
</svg>
