<svg width="345" height="122" viewBox="0 0 345 122" fill="none" xmlns="http://www.w3.org/2000/svg">
<g clip-path="url(#clip0_30_39)">
<path d="M38.0561 121.95C27.7765 121.545 19.3663 118.754 12.7902 113.57C11.5351 112.58 8.54455 109.611 7.54123 108.358C4.87453 105.031 3.06152 101.793 1.85226 98.2004C-1.86881 87.1413 0.0462928 72.6294 7.33001 56.7027C13.5664 43.0675 23.1894 29.5441 39.9782 10.8142C42.4513 8.05816 49.816 -0.0020752 49.8635 -0.0020752C49.8811 -0.0020752 49.4798 0.687802 48.9746 1.52789C44.6093 8.78299 40.8742 17.3288 38.8394 24.7271C35.5707 36.5983 35.965 46.7859 39.9941 54.6854C42.7734 60.1277 47.5383 64.8416 52.8964 67.4474C62.2765 72.0076 76.0096 72.3849 92.7808 68.5512C93.9355 68.2857 151.153 53.2149 219.931 35.0596C288.709 16.9026 344.991 2.05883 345 2.07106C345.019 2.0868 185.209 69.9397 102.249 105.141C89.1107 110.714 85.5974 112.122 79.4208 114.274C63.6318 119.775 49.4886 122.4 38.0561 121.95Z" fill="black"/>
</g>
<defs>
<clipPath id="clip0_30_39">
<rect width="345" height="122" fill="white"/>
</clipPath>
</defs>
</svg>
